<svg xmlns="http://www.w3.org/2000/svg" xmlns:xlink="http://www.w3.org/1999/xlink" width="460.747" height="308.392" viewBox="0 0 460.747 308.392">
  <defs>
    <linearGradient id="linear-gradient" x1="0.5" y1="1" x2="0.5" gradientUnits="objectBoundingBox">
      <stop offset="0" stop-color="gray" stop-opacity="0.251"/>
      <stop offset="0.54" stop-color="gray" stop-opacity="0.122"/>
      <stop offset="1" stop-color="gray" stop-opacity="0.102"/>
    </linearGradient>
    <linearGradient id="linear-gradient-3" x1="0" y1="0.5" x2="1" y2="0.5" xlink:href="#linear-gradient"/>
    <linearGradient id="linear-gradient-4" x1="0" y1="0.5" x2="1" y2="0.5" xlink:href="#linear-gradient"/>
  </defs>
  <g id="Resposive" transform="translate(57 138.839)">
    <path id="Path_8" data-name="Path 8" d="M324.643,127.679c-29.538-1.027-57.693-10.563-84.537-20.994s-53.451-21.991-82.3-27.519c-18.547-3.559-39.757-4.06-54.7,5.884-14.381,9.566-19.026,26.081-21.525,41.4-1.879,11.53-2.969,23.663,2.168,34.459,3.576,7.492,9.922,13.791,14.313,20.969,15.272,24.973,4.475,55.771-12.077,80.176-7.763,11.454-16.769,22.352-22.759,34.531s-8.764,26.131-3.521,38.552c5.2,12.3,17.575,21.558,30.989,28.062,27.243,13.2,59.343,16.973,90.646,19.136,69.291,4.738,138.955,2.685,208.428.632,25.711-.764,51.538-1.531,76.829-5.515,14.046-2.21,28.549-5.714,38.748-14.173,12.943-10.741,16.154-28.923,7.479-42.392-14.55-22.585-54.778-28.2-64.951-52.437-5.6-13.341.153-28.206,8.289-40.58,17.448-26.543,46.7-49.832,48.241-80.176,1.061-20.842-13-41.709-34.747-51.571-22.789-10.347-54.392-9.04-71.2,8.06C381.143,121.8,350.719,128.583,324.643,127.679Z" transform="translate(-113.939 -215.675)" fill="#29ae6d" opacity="0.1"/>
    <g id="Group_41" data-name="Group 41" transform="translate(58.691 -79.942)" opacity="0.7">
      <path id="Path_391" data-name="Path 391" d="M551.731,199H336.919A6.944,6.944,0,0,0,330,205.966V353.812a6.944,6.944,0,0,0,6.919,6.966H410.8V386.3h-3.368a3.521,3.521,0,0,0-3.508,3.534v5.12H410.8v3.029h67.051v-3.029h6.876v-5.12a3.521,3.521,0,0,0-3.508-3.534H478.05v-.221h-.216v-25.3h73.9a6.944,6.944,0,0,0,6.919-6.966V205.966A6.944,6.944,0,0,0,551.731,199Z" transform="translate(-330 -199)" fill="url(#linear-gradient)"/>
    </g>
    <rect id="Rectangle_136" data-name="Rectangle 136" width="66.177" height="39.028" transform="translate(140.14 77.441)" fill="#bdbdbd"/>
    <g id="Group_42" data-name="Group 42" transform="translate(139.928 75.744)" opacity="0.1">
      <path id="Path_392" data-name="Path 392" d="M523.014,571.515h63.7c.768-3.339,1.383-5.515,1.383-5.515H521.5S522.183,568.168,523.014,571.515Z" transform="translate(-521.5 -566)"/>
    </g>
    <path id="Path_393" data-name="Path 393" d="M226.55,3H438.571a6.83,6.83,0,0,1,6.83,6.83V140.445H219.72V9.83A6.83,6.83,0,0,1,226.55,3Z" transform="translate(-159.332 -81.669)" fill="#535461"/>
    <path id="Path_394" data-name="Path 394" d="M552.851,547.211H340.83a6.83,6.83,0,0,1-6.83-6.83V526H559.681v14.381A6.83,6.83,0,0,1,552.851,547.211Z" transform="translate(-273.612 -467.225)" fill="#bdbdbd"/>
    <circle id="Ellipse_45" data-name="Ellipse 45" cx="3.818" cy="3.818" r="3.818" transform="translate(169.41 65.563)" fill="#535461"/>
    <path id="Path_395" data-name="Path 395" d="M395.186,436h72.82a3.466,3.466,0,0,1,3.466,3.466v5.018H391.72v-5.018A3.466,3.466,0,0,1,395.186,436Z" transform="translate(-258.368 -330.985)" fill="#bdbdbd"/>
    <g id="Group_43" data-name="Group 43" transform="translate(103.233 -49.772)" opacity="0.5">
      <rect id="Rectangle_137" data-name="Rectangle 137" width="139.99" height="79.65" rx="4.5" transform="translate(0 0)" fill="url(#linear-gradient)"/>
    </g>
    <rect id="Rectangle_138" data-name="Rectangle 138" width="136.401" height="78.038" rx="4.5" transform="translate(105.028 -49.187)" fill="#fff"/>
    <g id="Group_44" data-name="Group 44" transform="translate(143.024 -37.983)" opacity="0.5">
      <rect id="Rectangle_139" data-name="Rectangle 139" width="15.034" height="13.532" rx="4.5" fill="#29ae6d"/>
    </g>
    <rect id="Rectangle_140" data-name="Rectangle 140" width="40.593" height="1.502" rx="0.751" transform="translate(162.568 -37.983)" fill="#e0e0e0"/>
    <rect id="Rectangle_141" data-name="Rectangle 141" width="33.742" height="1.502" rx="0.751" transform="translate(162.568 -33.469)" fill="#e0e0e0"/>
    <g id="Group_45" data-name="Group 45" transform="translate(143.024 -16.934)" opacity="0.5">
      <rect id="Rectangle_142" data-name="Rectangle 142" width="15.034" height="13.532" rx="4.5" fill="#29ae6d"/>
    </g>
    <rect id="Rectangle_143" data-name="Rectangle 143" width="40.593" height="1.502" rx="0.751" transform="translate(162.568 -16.934)" fill="#e0e0e0"/>
    <rect id="Rectangle_144" data-name="Rectangle 144" width="40.593" height="1.502" rx="0.751" transform="translate(162.568 -12.424)" fill="#e0e0e0"/>
    <g id="Group_46" data-name="Group 46" transform="translate(143.024 4.116)" opacity="0.5">
      <rect id="Rectangle_145" data-name="Rectangle 145" width="15.034" height="13.532" rx="4.5" fill="#29ae6d"/>
    </g>
    <rect id="Rectangle_146" data-name="Rectangle 146" width="40.593" height="1.502" rx="0.751" transform="translate(162.568 4.116)" fill="#e0e0e0"/>
    <rect id="Rectangle_147" data-name="Rectangle 147" width="40.864" height="1.502" rx="0.751" transform="translate(162.568 8.625)" fill="#e0e0e0"/>
    <line id="Line_7" data-name="Line 7" y1="9.333" transform="translate(173.228 -71.458)" stroke="#29ae6d" stroke-miterlimit="10" stroke-width="2"/>
    <line id="Line_8" data-name="Line 8" y1="12.247" transform="translate(173.228 -58.676)" stroke="#29ae6d" stroke-miterlimit="10" stroke-width="2"/>
    <circle id="Ellipse_46" data-name="Ellipse 46" cx="1.697" cy="1.697" r="1.697" transform="translate(171.532 -48.126)" fill="#29ae6d"/>
    <circle id="Ellipse_47" data-name="Ellipse 47" cx="1.697" cy="1.697" r="1.697" transform="translate(171.532 -62.125)" fill="none" stroke="#fff" stroke-miterlimit="10" stroke-width="1"/>
    <line id="Line_9" data-name="Line 9" y1="9.333" transform="translate(173.228 -71.458)" stroke="#29ae6d" stroke-miterlimit="10" stroke-width="2"/>
    <line id="Line_10" data-name="Line 10" y1="12.247" transform="translate(173.228 -58.676)" stroke="#29ae6d" stroke-miterlimit="10" stroke-width="2"/>
    <circle id="Ellipse_48" data-name="Ellipse 48" cx="1.697" cy="1.697" r="1.697" transform="translate(171.532 -48.126)" fill="#29ae6d"/>
    <circle id="Ellipse_49" data-name="Ellipse 49" cx="1.697" cy="1.697" r="1.697" transform="translate(171.532 -62.125)" fill="none" stroke="#fff" stroke-miterlimit="10" stroke-width="1"/>
    <line id="Line_11" data-name="Line 11" y2="13.151" transform="translate(173.228 38.413)" stroke="#29ae6d" stroke-miterlimit="10" stroke-width="2"/>
    <line id="Line_12" data-name="Line 12" y2="12.247" transform="translate(173.228 26.535)" stroke="#29ae6d" stroke-miterlimit="10" stroke-width="2"/>
    <circle id="Ellipse_50" data-name="Ellipse 50" cx="1.697" cy="1.697" r="1.697" transform="translate(171.532 24.838)" fill="#29ae6d"/>
    <line id="Line_13" data-name="Line 13" x1="13.363" transform="translate(83.508 -8.462)" stroke="#29ae6d" stroke-miterlimit="10" stroke-width="2"/>
    <line id="Line_14" data-name="Line 14" x1="12.247" transform="translate(96.289 -8.462)" stroke="#29ae6d" stroke-miterlimit="10" stroke-width="2"/>
    <circle id="Ellipse_51" data-name="Ellipse 51" cx="1.697" cy="1.697" r="1.697" transform="translate(106.839 -10.159)" fill="#29ae6d"/>
    <g id="Group_47" data-name="Group 47" transform="translate(140.352 104.802)" opacity="0.1">
      <rect id="Rectangle_148" data-name="Rectangle 148" width="66.177" height="1.273" transform="translate(0)"/>
    </g>
    <g id="Group_48" data-name="Group 48" transform="translate(-25.302 -5.487)" opacity="0.7">
      <path id="Path_396" data-name="Path 396" d="M200.5,455.77H169.79l.424-3.453c8.679-7.793,14.292-28.554,14.292-28.554a2.874,2.874,0,0,0-.369.076,21.565,21.565,0,0,0-11.246,5.634l1.077-9.188c16.035-3.453,22.394-24.664,22.394-24.664-10.232,2.27-16.612,5.782-20.574,9.116l1.578-13.5c10.843,3.72,22.059-16.044,22.059-16.044l-.424-.089.212-.136-.322.115c-11.984-2.583-18.39,4.268-20.468,7.114l.157-1.324q-.475,1.273-.925,2.494h0v.034q-1.273,3.449-2.329,6.813h0q-.921,2.872-1.722,5.684v-.025a17.052,17.052,0,0,0-13.227-15.25s1.336,26.331,11.424,22.021h0c-.933,3.818-1.7,7.492-2.359,11.059h0q-.632,3.483-1.1,6.787l-.059.068.059-.051-.025.174h0q-.424,3-.721,5.846c.2-3.657-.471-14.22-12.917-24.146,0,0-16.544,29.076,11.666,34.785l.187.161-.042-.132.255.055.115-1.493a156.7,156.7,0,0,0,.1,18.708h0c.03.424.059.848.089,1.251H135.976c-11.852,24.515,6.584,37.95,6.584,37.95h50.905C213.233,468.75,200.5,455.77,200.5,455.77Zm-33.089-27.862Z" transform="translate(-132.002 -374.513)" fill="url(#linear-gradient-3)"/>
    </g>
    <path id="Path_397" data-name="Path 397" d="M214.532,478.6s-8.06-35.21,9.757-80.6" transform="translate(-203.777 -393.524)" fill="none" stroke="#535461" stroke-miterlimit="10" stroke-width="3" opacity="0.6"/>
    <path id="Path_398" data-name="Path 398" d="M137.788,563h62.359s12.3,15.7-6.787,39.028H144.151S126.334,585.907,137.788,563Z" transform="translate(-158.424 -488.529)" fill="#29ae6d"/>
    <path id="Path_399" data-name="Path 399" d="M234.786,392.255s6.2-11.03,21.045-7.636c0,0-12.272,20.9-23.332,14.054Z" transform="translate(-215.17 -385.446)" fill="#4db6ac"/>
    <path id="Path_400" data-name="Path 400" d="M211.282,411.749A16.012,16.012,0,0,0,198.5,397.5s1.273,24.6,11.03,20.574Z" transform="translate(-195.593 -393.236)" fill="#4db6ac"/>
    <path id="Path_401" data-name="Path 401" d="M217.664,447.409s2.27-11.819,26.025-16.909c0,0-7.576,24.443-27.12,23.463Z" transform="translate(-205.997 -412.237)" fill="#4db6ac"/>
    <path id="Path_402" data-name="Path 402" d="M191.535,469.311s2.5-12.357-12.349-23.811c0,0-16.12,27.434,11.657,32.592Z" transform="translate(-181.794 -420.874)" fill="#4db6ac"/>
    <path id="Path_403" data-name="Path 403" d="M213.5,513.359s-1.722-17.465,16.943-20.859c0,0-6.817,24.388-16.968,28.736Z" transform="translate(-204.207 -447.936)" fill="#4db6ac"/>
    <path id="Path_404" data-name="Path 404" d="M233,399.423s16.12-12.3,22.907-14.423" transform="translate(-215.457 -386.038)" fill="none" stroke="#535461" stroke-miterlimit="10" stroke-width="1" opacity="0.3"/>
    <path id="Path_405" data-name="Path 405" d="M216.5,453.832s19.514-20.786,27.15-23.332" transform="translate(-205.957 -412.237)" fill="none" stroke="#535461" stroke-miterlimit="10" stroke-width="1" opacity="0.3"/>
    <path id="Path_406" data-name="Path 406" d="M198.5,397.5s11.878,16.12,11.03,20.362" transform="translate(-195.593 -393.236)" fill="none" stroke="#535461" stroke-miterlimit="10" stroke-width="1" opacity="0.3"/>
    <path id="Path_407" data-name="Path 407" d="M185.5,445.5s6.363,28.846,11.454,32.664" transform="translate(-188.108 -420.874)" fill="none" stroke="#535461" stroke-miterlimit="10" stroke-width="1" opacity="0.3"/>
    <path id="Path_408" data-name="Path 408" d="M213.5,521.346s10.181-28,16.968-28.846" transform="translate(-204.23 -447.936)" fill="none" stroke="#535461" stroke-miterlimit="10" stroke-width="1" opacity="0.3"/>
    <g id="Group_49" data-name="Group 49" transform="translate(-21.061 74.471)" opacity="0.1">
      <path id="Path_409" data-name="Path 409" d="M204.783,563H142.424c-.14.284-.276.568-.424.848h60.662s12,15.318-6.109,38.179H198C217.086,578.7,204.783,563,204.783,563Z" transform="translate(-142 -563)"/>
    </g>
    <rect id="Rectangle_149" data-name="Rectangle 149" width="412.097" height="13.969" transform="translate(-32.82 113.329)" fill="#e0e0e0"/>
    <rect id="Rectangle_150" data-name="Rectangle 150" width="377.171" height="5.714" transform="translate(-15.359 127.298)" fill="#e0e0e0"/>
    <rect id="Rectangle_151" data-name="Rectangle 151" width="377.171" height="1.905" transform="translate(-15.359 127.298)" opacity="0.1"/>
    <line id="Line_15" data-name="Line 15" x2="2.545" transform="translate(259.98 -8.462)" stroke="#29ae6d" stroke-miterlimit="10" stroke-width="2"/>
    <line id="Line_16" data-name="Line 16" x2="19.039" transform="translate(237.496 -8.462)" stroke="#29ae6d" stroke-miterlimit="10" stroke-width="2"/>
    <circle id="Ellipse_52" data-name="Ellipse 52" cx="1.697" cy="1.697" r="1.697" transform="translate(235.8 -10.159)" fill="#29ae6d"/>
    <circle id="Ellipse_53" data-name="Ellipse 53" cx="1.697" cy="1.697" r="1.697" transform="translate(256.586 -10.159)" fill="none" stroke="#fff" stroke-miterlimit="10" stroke-width="1"/>
    <g id="Group_50" data-name="Group 50" transform="translate(314.491 39.919)" opacity="0.7">
      <path id="Path_410" data-name="Path 410" d="M972.876,550.412l.042-.064q.131-.2.259-.424l.047-.081q.123-.208.233-.424l.038-.072c.085-.165.165-.331.238-.5h0a10.091,10.091,0,0,0,.4-1.065l.042-.14c.038-.131.076-.263.11-.395l.042-.187q.042-.178.076-.361a1.149,1.149,0,0,1,.038-.2c.013-.068.038-.238.055-.361a.938.938,0,0,1,.025-.208,2.242,2.242,0,0,0,.034-.39v-35.8H968.68V492.567h-7.212v17.172H956.5V485.075h-7.212v24.664h-2.711V481.55h-7.212v28.189H933v35.04a10.484,10.484,0,0,0,10.605,10.351h20.362a10.686,10.686,0,0,0,8.586-4.268h0Q972.711,550.637,972.876,550.412Z" transform="translate(-933 -481.55)" fill="url(#linear-gradient-4)"/>
    </g>
    <rect id="Rectangle_152" data-name="Rectangle 152" width="6.787" height="42.421" transform="translate(321.703 56.23)" fill="#535461"/>
    <rect id="Rectangle_153" data-name="Rectangle 153" width="6.787" height="13.999" transform="translate(321.703 42.231)" fill="#3ad29f"/>
    <rect id="Rectangle_154" data-name="Rectangle 154" width="6.787" height="42.421" transform="translate(331.035 59.624)" fill="#535461"/>
    <rect id="Rectangle_155" data-name="Rectangle 155" width="6.787" height="13.999" transform="translate(331.035 45.625)" fill="#4d8af0"/>
    <rect id="Rectangle_156" data-name="Rectangle 156" width="6.787" height="42.421" transform="translate(342.489 66.835)" fill="#535461"/>
    <rect id="Rectangle_157" data-name="Rectangle 157" width="6.787" height="13.999" transform="translate(342.489 52.836)" fill="#f55f44"/>
    <path id="Path_411" data-name="Path 411" d="M821.72,352h39.027v33.725a9.969,9.969,0,0,1-9.969,9.969H831.689a9.969,9.969,0,0,1-9.969-9.969Z" transform="translate(-505.956 -282.619)" fill="#29ae6d"/>
    <g id="Group_51" data-name="Group 51" transform="translate(315.764 69.381)" opacity="0.1">
      <path id="Path_412" data-name="Path 412" d="M936,551v1.7h37.331v33.725a9.922,9.922,0,0,1-2.121,6.147,9.947,9.947,0,0,0,3.818-7.844V551Z" transform="translate(-936 -551)"/>
    </g>
  </g>
</svg>
