<svg xmlns="http://www.w3.org/2000/svg" width="115" height="114" viewBox="0 0 115 114">
  <g id="Group_108" data-name="Group 108" transform="translate(-995 -3399)">
    <g id="Ellipse_101" data-name="Ellipse 101" transform="translate(995 3399)" fill="none" stroke="#fff" stroke-width="2">
      <ellipse cx="57.5" cy="57" rx="57.5" ry="57" stroke="none"/>
      <ellipse cx="57.5" cy="57" rx="56.5" ry="56" fill="none"/>
    </g>
    <g id="quality" transform="translate(1029.813 3424.212)">
      <path id="Path_685" data-name="Path 685" d="M56.7,46.445a22.511,22.511,0,1,0-23.494,0l-7.433,17.4a.948.948,0,0,0,1.076,1.3l5.092-1.122,2.708,4.453a.947.947,0,0,0,.81.456h.068a.947.947,0,0,0,.8-.573L44.28,49.746c.224.006.446.017.671.017s.447-.01.671-.017l7.952,18.608a.947.947,0,0,0,.8.573h.068a.947.947,0,0,0,.812-.456l2.708-4.453,5.092,1.122a.948.948,0,0,0,1.076-1.3ZM35.309,65.915l-2.1-3.459a.951.951,0,0,0-1.014-.433l-3.954.87,6.634-15.523a22.333,22.333,0,0,0,7.41,2.228ZM24.336,27.253A20.615,20.615,0,1,1,44.951,47.867,20.615,20.615,0,0,1,24.336,27.253ZM57.711,62.023a.952.952,0,0,0-1.014.433l-2.1,3.459L47.621,49.6a22.333,22.333,0,0,0,7.41-2.228l6.632,15.524Z" transform="translate(-22.438 -4.732)" fill="#fff"/>
      <path id="Path_686" data-name="Path 686" d="M81.432,92.6a.948.948,0,0,0-.5,1.246l1.272,2.979a.948.948,0,1,0,1.743-.745L82.677,93.1A.948.948,0,0,0,81.432,92.6Z" transform="translate(-49.213 -44.968)" fill="#fff"/>
      <path id="Path_687" data-name="Path 687" d="M47.7,10.75A19.261,19.261,0,1,0,66.963,30.011,19.261,19.261,0,0,0,47.7,10.75Zm0,36.625A17.365,17.365,0,1,1,65.067,30.01,17.365,17.365,0,0,1,47.7,47.375Z" transform="translate(-25.19 -7.49)" fill="#fff"/>
      <path id="Path_688" data-name="Path 688" d="M64.531,35.637H58.6L56.766,30a.948.948,0,0,0-1.8,0L53.13,35.637H47.2a.948.948,0,0,0-.557,1.715l4.8,3.487L49.606,46.48a.948.948,0,0,0,1.459,1.06l4.8-3.488,4.8,3.487a.948.948,0,0,0,1.459-1.06l-1.834-5.64,4.8-3.487a.948.948,0,0,0-.557-1.715ZM58.618,39.71a.948.948,0,0,0-.344,1.06l1.145,3.521-3-2.177a.949.949,0,0,0-1.115,0l-3,2.178,1.145-3.521a.948.948,0,0,0-.345-1.06l-3-2.177h3.7a.948.948,0,0,0,.9-.655l1.144-3.523,1.144,3.521a.948.948,0,0,0,.9.655h3.7Z" transform="translate(-33.352 -16.011)" fill="#fff"/>
    </g>
  </g>
</svg>
