<svg xmlns="http://www.w3.org/2000/svg" width="114" height="114" viewBox="0 0 114 114">
  <g id="Group_106" data-name="Group 106" transform="translate(-811 -3399)">
    <g id="Ellipse_100" data-name="Ellipse 100" transform="translate(811 3399)" fill="none" stroke="#fff" stroke-width="2">
      <circle cx="57" cy="57" r="57" stroke="none"/>
      <circle cx="57" cy="57" r="56" fill="none"/>
    </g>
    <g id="XMLID_806_" transform="translate(832.315 3424.913)">
      <g id="XMLID_386_" transform="translate(0 0)">
        <path id="XMLID_389_" d="M61.511,42.135a23.78,23.78,0,0,0-7-14.523,24.294,24.294,0,0,0-11.891-6.418V18.189a4.016,4.016,0,0,0-.988-7.927H32.964a4.016,4.016,0,0,0-.988,7.927V21.2a24.28,24.28,0,0,0-13.9,8.689c-.03,0-.06,0-.091,0H9.409a1.183,1.183,0,1,0,0,2.366H16.44A23.531,23.531,0,0,0,14.3,36.8H1.2a1.183,1.183,0,1,0,0,2.366h12.42a23.669,23.669,0,0,0-.6,4.548H7.7a1.183,1.183,0,1,0,0,2.366h5.361a23.646,23.646,0,0,0,.752,4.548h-7.8a1.183,1.183,0,1,0,0,2.366h8.566a23.722,23.722,0,0,0,5.537,8.416A24.537,24.537,0,0,0,34.912,68.3q1.193.116,2.386.115a24.681,24.681,0,0,0,13.27-3.855,1.171,1.171,0,0,0,.352-1.637,1.216,1.216,0,0,0-1.666-.346A22.285,22.285,0,0,1,21.824,59.74a21.3,21.3,0,0,1,0-30.454,22.2,22.2,0,0,1,30.982,0,21.352,21.352,0,0,1,2.9,26.938,1.171,1.171,0,0,0,.354,1.637,1.216,1.216,0,0,0,1.665-.348A23.657,23.657,0,0,0,61.511,42.135ZM31.278,14.285a1.673,1.673,0,0,1,1.685-1.656H41.63a1.657,1.657,0,1,1,0,3.313H32.964A1.673,1.673,0,0,1,31.278,14.285Zm3.1,6.511V18.308h5.828v2.484A24.949,24.949,0,0,0,34.383,20.8Z" transform="translate(0 -10.262)" fill="#fff"/>
        <path id="XMLID_391_" d="M436.953,425.5a1.184,1.184,0,1,0,.837.347A1.19,1.19,0,0,0,436.953,425.5Z" transform="translate(-383.159 -376.369)" fill="#fff"/>
        <path id="XMLID_394_" d="M173.227,144.609a18.355,18.355,0,1,0,18.355,18.355A18.376,18.376,0,0,0,173.227,144.609Zm0,34.343a15.988,15.988,0,1,1,15.988-15.988A16.007,16.007,0,0,1,173.227,178.952Z" transform="translate(-135.497 -128.713)" fill="#fff"/>
        <path id="XMLID_397_" d="M270.787,219.758l-5.86,5.86a3.667,3.667,0,0,0-3.248,0L259.056,223a1.183,1.183,0,1,0-1.673,1.673l2.623,2.623a3.677,3.677,0,1,0,6.595,0l5.688-5.688h0l.172-.172a1.183,1.183,0,0,0-1.673-1.673ZM263.3,230.226a1.31,1.31,0,1,1,1.31-1.31A1.312,1.312,0,0,1,263.3,230.226Z" transform="translate(-225.911 -194.665)" fill="#fff"/>
        <path id="XMLID_398_" d="M399.934,289.86h-1.1a1.183,1.183,0,0,0,0,2.366h1.1a1.183,1.183,0,1,0,0-2.366Z" transform="translate(-349.739 -256.778)" fill="#fff"/>
        <path id="XMLID_399_" d="M195.361,289.616h-1.1a1.183,1.183,0,0,0,0,2.366h1.1a1.183,1.183,0,1,0,0-2.366Z" transform="translate(-169.816 -256.563)" fill="#fff"/>
        <path id="XMLID_400_" d="M301.306,186.282a1.183,1.183,0,0,0,1.183-1.183V184a1.183,1.183,0,1,0-2.366,0v1.1A1.183,1.183,0,0,0,301.306,186.282Z" transform="translate(-263.972 -162.402)" fill="#fff"/>
        <path id="XMLID_424_" d="M301.062,387.393a1.183,1.183,0,0,0-1.183,1.183v1.1a1.183,1.183,0,1,0,2.366,0v-1.1A1.183,1.183,0,0,0,301.062,387.393Z" transform="translate(-263.757 -342.771)" fill="#fff"/>
        <path id="XMLID_425_" d="M1.183,351.44a1.183,1.183,0,1,0,.836,2.02,1.183,1.183,0,0,0-.836-2.02Z" transform="translate(0 -311.072)" fill="#fff"/>
      </g>
    </g>
  </g>
</svg>
