<svg xmlns="http://www.w3.org/2000/svg" width="114" height="114" viewBox="0 0 114 114">
  <g id="Group_107" data-name="Group 107" transform="translate(-1179 -3399)">
    <g id="Ellipse_102" data-name="Ellipse 102" transform="translate(1179 3399)" fill="none" stroke="#fff" stroke-width="2">
      <circle cx="57" cy="57" r="57" stroke="none"/>
      <circle cx="57" cy="57" r="56" fill="none"/>
    </g>
    <g id="on-time" transform="translate(1206.499 3426.313)">
      <g id="Group_53" data-name="Group 53">
        <path id="Path_689" data-name="Path 689" d="M22.623,10.441a1.74,1.74,0,0,0-1.74,1.74V21.9l-6.451,6.451a1.74,1.74,0,1,0,2.461,2.461l6.96-6.961a1.759,1.759,0,0,0,.51-1.231V12.181a1.74,1.74,0,0,0-1.74-1.74ZM44.574,28.1A22.616,22.616,0,1,0,28.1,44.574,15.662,15.662,0,1,0,44.574,28.1ZM22.623,41.765a19.136,19.136,0,1,1,18.272-13.43,15.7,15.7,0,0,0-12.56,12.56,19.056,19.056,0,0,1-5.712.87ZM43.737,55.919A12.181,12.181,0,1,1,55.919,43.737,12.2,12.2,0,0,1,43.737,55.919ZM48.5,38.972l-6.5,6.5-3.925-3.925a1.74,1.74,0,1,0-2.461,2.461l5.155,5.155a1.74,1.74,0,0,0,2.461,0l7.735-7.735A1.74,1.74,0,1,0,48.5,38.972Z" fill="#fff"/>
      </g>
    </g>
  </g>
</svg>
