<svg xmlns="http://www.w3.org/2000/svg" width="115" height="114" viewBox="0 0 115 114">
  <g id="Group_105" data-name="Group 105" transform="translate(-626 -3399)">
    <g id="Ellipse_99" data-name="Ellipse 99" transform="translate(626 3399)" fill="none" stroke="#fff" stroke-width="2">
      <ellipse cx="57.5" cy="57" rx="57.5" ry="57" stroke="none"/>
      <ellipse cx="57.5" cy="57" rx="56.5" ry="56" fill="none"/>
    </g>
    <g id="payment" transform="translate(652.326 3424.912)">
      <path id="Path_681" data-name="Path 681" d="M220.8,332.271a1.217,1.217,0,1,0-1.721,0A1.218,1.218,0,0,0,220.8,332.271Zm0,0" transform="translate(-192.174 -290.019)" fill="#fff"/>
      <path id="Path_682" data-name="Path 682" d="M188.449,13.38A13.38,13.38,0,1,0,201.829,0,13.4,13.4,0,0,0,188.449,13.38Zm24.327,0A10.947,10.947,0,1,1,201.829,2.433,10.96,10.96,0,0,1,212.776,13.38Zm0,0" transform="translate(-165.582)" fill="#fff"/>
      <path id="Path_683" data-name="Path 683" d="M14.511,248.421a1.216,1.216,0,0,0,1.717.01l5.9-5.81a3.676,3.676,0,0,0,.866-3.775l1.268-1.223a3.627,3.627,0,0,1,2.533-1.023h16.17a10.89,10.89,0,0,0,7.636-3.1c.085-.082-.642.774,11.031-13.178a4.866,4.866,0,0,0-7.4-6.315l-7.178,7.377a4.888,4.888,0,0,0-3.782-1.811H29.7a15.693,15.693,0,0,0-6.091-1.216c-5.857,0-10.972,2.705-13.716,7.777a3.633,3.633,0,0,0-3.253,1.008l-5.786,5.8a1.217,1.217,0,0,0,0,1.716Zm9.1-27.634a13.278,13.278,0,0,1,5.355,1.115,1.214,1.214,0,0,0,.488.1H43.267a2.433,2.433,0,1,1,0,4.865H33.343a1.216,1.216,0,1,0,0,2.432h9.924a4.858,4.858,0,0,0,4.823-5.5c6.943-7.137,7.922-8.14,7.964-8.19a2.433,2.433,0,1,1,3.715,3.143L48.858,231.8a8.47,8.47,0,0,1-5.9,2.371H26.792a6.047,6.047,0,0,0-4.222,1.705l-1.034,1-9.529-9.529c2.227-4.178,6.406-6.554,11.6-6.554ZM8.364,228.859a1.213,1.213,0,0,1,1.506-.171c.211.128-.394-.422,10.535,10.492a1.219,1.219,0,0,1,.007,1.714l-5.027,4.953L3.433,233.8Zm0,0" transform="translate(-0.501 -186.486)" fill="#fff"/>
      <path id="Path_684" data-name="Path 684" d="M268.3,41.2V42.63a3.649,3.649,0,0,0,1.216,7.089,1.216,1.216,0,1,1,0,2.432,2.2,2.2,0,0,1-1.579-.92,1.216,1.216,0,1,0-1.862,1.566,5.045,5.045,0,0,0,2.225,1.584V55.8a1.216,1.216,0,1,0,2.432,0V54.376a3.649,3.649,0,0,0-1.216-7.089,1.216,1.216,0,0,1,0-2.433,1.953,1.953,0,0,1,1.316.636,1.216,1.216,0,1,0,1.692-1.748,4.7,4.7,0,0,0-1.791-1.12V41.2a1.216,1.216,0,1,0-2.432,0Zm0,0" transform="translate(-233.51 -35.123)" fill="#fff"/>
    </g>
  </g>
</svg>
